<svg width="66" height="66" viewBox="0 0 66 66" fill="none" xmlns="http://www.w3.org/2000/svg">
<g clip-path="url(#clip0)">
<path d="M44.1375 19.1813V17.9438C44.1375 17.5313 43.9313 17.1188 43.5188 17.1188C43.1063 17.1188 42.6938 17.325 42.4875 17.7375C42.4875 17.7375 42.4875 17.7375 42.4875 17.9438V19.1813C42.2813 19.1813 41.8688 19.1813 41.6625 19.3875L40.6313 18.3563C40.425 18.15 40.2188 18.15 40.0125 18.15C39.8063 18.15 39.3938 18.3563 39.3938 18.5625C39.1875 18.7688 39.1875 19.1813 39.6 19.3875L40.2188 19.8C39.6 20.2125 38.775 20.625 38.3625 21.2438C37.7438 21.8625 37.7438 22.6875 38.1563 23.3063C38.775 23.925 39.6 23.925 40.2188 23.5125C40.2188 23.5125 40.2188 23.5125 40.425 23.3063C42.2813 21.45 45.375 21.45 47.2313 23.3063C47.85 23.925 48.675 23.925 49.2938 23.3063C49.2938 23.3063 49.2938 23.1 49.5 23.1C49.9125 22.4813 49.7063 21.8625 49.2938 21.45C48.675 20.8313 47.85 20.4188 47.2313 20.0063L47.85 19.3875C48.0563 19.1813 48.2625 18.7688 47.85 18.3563C47.6438 18.15 47.4375 17.9438 47.2313 17.9438C47.025 17.9438 46.8188 17.9438 46.6125 18.15L45.5813 19.1813C44.55 19.3875 44.55 19.3875 44.1375 19.1813Z" fill="#5762D5"/>
<path d="M42.9 35.8875C42.6938 36.0938 42.4875 36.3 42.2813 36.5063C41.4563 36.9188 40.425 36.7125 39.6 35.8875C38.775 34.8563 37.5375 34.4438 36.3 34.4438H34.8563C34.65 34.8563 34.2375 35.0625 33.825 35.0625C33.4125 35.0625 33.2063 34.8563 32.7938 34.4438H31.35C30.1125 34.4438 28.875 35.0625 28.05 35.8875C27.4313 36.5063 26.4 36.7125 25.3688 36.5063C25.1625 36.5063 24.75 36.3 24.75 35.8875C24.1313 35.2688 23.3063 35.2688 22.6875 35.8875C22.0688 36.5063 22.0688 37.3313 22.6875 37.7438C24.75 39.8063 27.8438 39.8063 29.9063 37.7438C30.3188 37.3313 30.9375 37.125 31.5563 37.125H35.8875C36.5063 37.125 37.125 37.3313 37.5375 37.7438C39.6 39.8063 42.6938 39.8063 44.7563 37.7438C45.375 37.125 45.1688 36.3 44.7563 35.6813C44.1375 35.475 43.3125 35.475 42.9 35.8875Z" fill="#5762D5"/>
<path d="M20.4188 23.3063C22.275 21.45 25.3688 21.45 27.225 23.3063C27.8438 23.925 28.4625 23.925 29.0813 23.5125C29.7 23.1 29.9063 22.275 29.2875 21.6563C29.2875 21.6563 29.2875 21.6563 29.0813 21.45C28.4625 20.8313 27.8438 20.4188 27.0188 20.0063L27.6375 19.5938C28.05 19.3875 28.05 18.975 27.8438 18.5625C27.6375 18.3563 27.4313 18.15 27.225 18.15C27.0188 18.15 26.8125 18.15 26.6063 18.3563L25.575 19.3875C25.3688 19.3875 24.9563 19.3875 24.75 19.1813V18.15C24.75 17.7375 24.5438 17.325 24.1313 17.325C23.7188 17.325 23.3063 17.5313 23.1 17.9438C23.1 17.9438 23.1 17.9438 23.1 18.15V19.3875C22.8938 19.3875 22.6875 19.3875 22.4813 19.3875L21.45 18.3563C21.2438 18.15 21.0375 18.15 20.8313 18.15C20.625 18.15 20.2125 18.3563 20.2125 18.5625C20.0063 18.975 20.0063 19.3875 20.2125 19.5938L20.625 20.0063C19.8 20.4188 19.1813 20.8313 18.5625 21.45C17.9438 21.8625 17.9438 22.6875 18.3563 23.1C18.7688 23.7188 19.3875 23.925 20.4188 23.3063C20.2125 23.5125 20.2125 23.5125 20.4188 23.3063Z" fill="#5762D5"/>
<path d="M58.9875 19.3875C55.275 5.36253 40.8375 -2.68122 26.8125 1.03128C17.9438 3.30003 10.9313 10.3125 8.45627 19.3875C5.15627 20.0063 2.88752 23.3063 3.50627 26.6063C3.91877 28.875 5.56877 30.7313 7.83752 31.35C8.25002 34.65 8.86877 37.7438 9.90002 41.0438C12.5813 48.675 18.7688 58.9875 33 66C33.4125 66.2063 33.825 66.2063 34.0313 66C48.2625 58.9875 54.45 48.675 57.1313 41.0438C58.1625 37.95 58.9875 34.65 59.1938 31.35C62.4938 30.525 64.35 27.0188 63.525 23.7188C63.1125 21.45 61.4625 19.8 58.9875 19.3875ZM7.83752 25.9875C7.83752 26.1938 7.83752 26.8125 7.83752 28.05C6.39377 27.0188 5.98127 24.9563 7.01252 23.5125C7.21877 23.1 7.63127 22.8938 8.04377 22.4813C7.83752 23.7188 7.83752 24.9563 7.83752 25.9875ZM33.825 44.7563C16.0875 44.7563 11.7563 21.0375 11.7563 20.0063C15.0563 7.83753 27.8438 0.618782 40.0125 4.12503C47.6438 6.18753 53.8313 12.375 55.8938 20.0063C55.8938 20.8313 51.5625 44.7563 33.825 44.7563ZM59.8125 28.05C59.8125 27.4313 59.8125 26.8125 59.8125 25.9875C59.8125 24.75 59.8125 23.7188 59.6063 22.4813C60.6375 23.1 61.2563 24.1313 61.2563 25.3688C61.05 26.4 60.6375 27.4313 59.8125 28.05Z" fill="#5762D5"/>
<path d="M18.3562 29.4937C18.8119 29.4937 19.1812 29.1244 19.1812 28.6687C19.1812 28.2131 18.8119 27.8438 18.3562 27.8438C17.9006 27.8438 17.5312 28.2131 17.5312 28.6687C17.5312 29.1244 17.9006 29.4937 18.3562 29.4937Z" fill="#5762D5"/>
</g>
<defs>
<clipPath id="clip0">
<rect width="66" height="66" fill="white"/>
</clipPath>
</defs>
</svg>
