<?xml version="1.0" encoding="utf-8"?>
<!-- Generator: Adobe Illustrator 22.1.0, SVG Export Plug-In . SVG Version: 6.00 Build 0)  -->
<svg version="1.1" id="Capa_1" xmlns="http://www.w3.org/2000/svg" xmlns:xlink="http://www.w3.org/1999/xlink" x="0px" y="0px"
	 viewBox="0 0 32 32" style="enable-background:new 0 0 32 32;" xml:space="preserve">
<style type="text/css">
	.st0{fill:#8CFBDE;}
</style>
<g>
	<path id="Path_10" class="st0" d="M21.4,9.3V8.7c0-0.2-0.1-0.4-0.3-0.4c-0.2,0-0.4,0.1-0.5,0.3c0,0,0,0,0,0.1v0.6
		c-0.1,0-0.3,0-0.4,0.1l-0.5-0.5c-0.1-0.1-0.2-0.1-0.3-0.1s-0.3,0.1-0.3,0.2C19,9.1,19,9.3,19.2,9.4l0.3,0.2
		c-0.3,0.2-0.7,0.4-0.9,0.7c-0.3,0.3-0.3,0.7-0.1,1c0.3,0.3,0.7,0.3,1,0.1c0,0,0,0,0.1-0.1c0.9-0.9,2.4-0.9,3.3,0
		c0.3,0.3,0.7,0.3,1,0c0,0,0-0.1,0.1-0.1c0.2-0.3,0.1-0.6-0.1-0.8c-0.3-0.3-0.7-0.5-1-0.7l0.3-0.3c0.1-0.1,0.2-0.3,0-0.5
		c-0.1-0.1-0.2-0.2-0.3-0.2s-0.2,0-0.3,0.1l-0.5,0.5C21.6,9.4,21.6,9.4,21.4,9.3z"/>
	<path id="Path_11" class="st0" d="M20.8,17.4c-0.1,0.1-0.2,0.2-0.3,0.3c-0.4,0.2-0.9,0.1-1.3-0.3c-0.4-0.5-1-0.7-1.6-0.7h-0.7
		c-0.1,0.2-0.3,0.3-0.5,0.3c-0.2,0-0.3-0.1-0.5-0.3h-0.7c-0.6,0-1.2,0.3-1.6,0.7c-0.3,0.3-0.8,0.4-1.3,0.3c-0.1,0-0.3-0.1-0.3-0.3
		c-0.3-0.3-0.7-0.3-1,0c-0.3,0.3-0.3,0.7,0,0.9l0,0c1,1,2.5,1,3.5,0l0,0c0.2-0.2,0.5-0.3,0.8-0.3h2.1c0.3,0,0.6,0.1,0.8,0.3
		c1,1,2.5,1,3.5,0l0,0c0.3-0.3,0.2-0.7,0-1C21.4,17.2,21,17.2,20.8,17.4L20.8,17.4z"/>
	<path id="Path_12" class="st0" d="M9.9,11.3c0.9-0.9,2.4-0.9,3.3,0c0.3,0.3,0.6,0.3,0.9,0.1c0.3-0.2,0.4-0.6,0.1-0.9
		c0,0,0,0-0.1-0.1c-0.3-0.3-0.6-0.5-1-0.7l0.3-0.2c0.2-0.1,0.2-0.3,0.1-0.5c-0.1-0.1-0.2-0.2-0.3-0.2c-0.1,0-0.2,0-0.3,0.1l-0.5,0.5
		c-0.1,0-0.3,0-0.4-0.1V8.8c0-0.2-0.1-0.4-0.3-0.4c-0.2,0-0.4,0.1-0.5,0.3c0,0,0,0,0,0.1v0.6c-0.1,0-0.2,0-0.3,0l-0.5-0.5
		c-0.1-0.1-0.2-0.1-0.3-0.1c-0.1,0-0.3,0.1-0.3,0.2c-0.1,0.2-0.1,0.4,0,0.5L10,9.7c-0.4,0.2-0.7,0.4-1,0.7c-0.3,0.2-0.3,0.6-0.1,0.8
		C9.1,11.5,9.4,11.6,9.9,11.3C9.8,11.4,9.8,11.4,9.9,11.3z"/>
	<path id="Path_13" class="st0" d="M28.6,9.4c-1.8-6.8-8.8-10.7-15.6-8.9C8.7,1.6,5.3,5,4.1,9.4c-1.6,0.3-2.7,1.9-2.4,3.5
		c0.2,1.1,1,2,2.1,2.3c0.2,1.6,0.5,3.1,1,4.7c1.3,3.7,4.3,8.7,11.2,12.1c0.2,0.1,0.4,0.1,0.5,0l0,0c6.9-3.4,9.9-8.4,11.2-12.1
		c0.5-1.5,0.9-3.1,1-4.7c1.6-0.4,2.5-2.1,2.1-3.7C30.6,10.4,29.8,9.6,28.6,9.4L28.6,9.4z M3.8,12.6c0,0.1,0,0.4,0,1
		c-0.7-0.5-0.9-1.5-0.4-2.2c0.1-0.2,0.3-0.3,0.5-0.5C3.8,11.5,3.8,12.1,3.8,12.6z M16.4,21.7c-8.6,0-10.7-11.5-10.7-12l0,0h0
		C7.3,3.8,13.5,0.3,19.4,2c3.7,1,6.7,4,7.7,7.7h0l0,0C27.1,10.1,25,21.7,16.4,21.7z M29,13.6c0-0.3,0-0.6,0-1c0-0.6,0-1.1-0.1-1.7
		c0.5,0.3,0.8,0.8,0.8,1.4C29.6,12.8,29.4,13.3,29,13.6z"/>
	<circle class="st0" cx="8.9" cy="13.9" r="0.4"/>
</g>
</svg>
